<?xml version="1.0" standalone="no"?>
<!DOCTYPE svg PUBLIC "-//W3C//DTD SVG 20010904//EN"
 "http://www.w3.org/TR/2001/REC-SVG-20010904/DTD/svg10.dtd">
<svg version="1.0" xmlns="http://www.w3.org/2000/svg"
 width="700.000000pt" height="700.000000pt" viewBox="0 0 700.000000 700.000000"
 preserveAspectRatio="xMidYMid meet">
<metadata>
Created by potrace 1.14, written by Peter Selinger 2001-2017
</metadata>
<g transform="translate(0.000000,700.000000) scale(0.100000,-0.100000)"
fill="#000000" stroke="none">
<path d="M932 6322 c-109 -40 -192 -117 -235 -224 l-22 -53 -3 -2237 -2 -2237
76 -173 c41 -95 82 -186 89 -203 8 -16 44 -97 80 -180 36 -82 73 -157 82 -167
18 -20 64 -24 95 -7 11 6 33 41 50 77 16 37 33 76 38 87 5 11 61 139 125 285
65 146 119 269 123 274 3 5 -1 6 -8 1 -10 -6 -11 -4 -4 6 13 21 13 3890 0
3881 -7 -3 -6 0 0 9 14 16 12 542 -1 594 -27 104 -114 207 -215 253 -76 34
-194 40 -268 14z"/>
<path d="M2423 6279 c-90 -16 -173 -83 -215 -174 -22 -48 -23 -62 -26 -352
l-3 -303 -100 0 c-140 0 -196 -26 -241 -114 -46 -91 -13 -206 77 -261 46 -28
54 -30 157 -30 l108 0 0 -387 c0 -214 -3 -388 -7 -388 -5 -1 -48 -1 -98 -2
-134 -2 -184 -24 -231 -103 -46 -80 -30 -189 38 -252 43 -40 91 -53 198 -53
l100 0 0 -388 0 -387 -90 0 c-115 1 -161 -12 -206 -55 -45 -42 -67 -91 -66
-150 0 -55 12 -86 47 -129 48 -56 96 -74 210 -75 l100 -1 3 -387 2 -386 -105
-1 c-122 -1 -163 -16 -214 -78 -57 -69 -59 -164 -5 -244 41 -61 94 -83 204
-85 52 -2 100 -3 107 -3 9 -1 13 -79 15 -303 4 -330 4 -329 66 -413 16 -22 55
-56 88 -75 l58 -35 1842 -3 c1843 -2 1843 -2 1898 19 67 25 133 86 166 154
l25 50 0 2575 c0 2505 -1 2576 -19 2630 -28 80 -103 152 -186 178 -62 19 -108
19 -1859 19 -988 -1 -1815 -4 -1838 -8z"/>
</g>
</svg>
